<?xml version="1.0" encoding="iso-8859-1"?>
<!-- Uploaded to: SVG Repo, www.svgrepo.com, Generator: SVG Repo Mixer Tools -->
<svg fill="#000000" height="800px" width="800px" version="1.1" id="Layer_1" xmlns="http://www.w3.org/2000/svg" xmlns:xlink="http://www.w3.org/1999/xlink" 
	 viewBox="0 0 203.615 203.615" xml:space="preserve">
<g>
	<g>
		<path d="M186.684,48.954l5.648,5.649l11.283-11.283l-5.807-5.807l-5.594,5.594l-1.541-1.54l-23.741-23.739l5.533-5.533
			l-5.807-5.807l-0.007,0.007l-0.015-0.015l-11.314,11.314l5.658,5.658l0.039-0.039l0.113,0.113l-6.858,6.858l-5.657,5.657
			l-12.831,12.831l-5.657,5.658l-28.33,28.331L42.372,23.436l5.678-5.678l-0.031-0.031l0.018-0.018L36.754,6.427l-5.807,5.807
			l5.656,5.656L11.435,43.064l-5.628-5.628L0,43.243l10.965,10.965l0.001,0.012l0.31,0.31l0.006-0.006l0.001,0.001l5.63-5.63
			l59.644,59.644L22.97,171.446c-2.401,2.821-3.915,6.158-4.536,9.548c-1.444-0.59-3.161-0.289-4.329,0.879
			c-1.562,1.562-1.562,4.094,0,5.658l8.488,8.486c0.781,0.781,1.805,1.172,2.829,1.172s2.047-0.391,2.829-1.172
			c1.225-1.223,1.488-3.044,0.795-4.524c3.498-0.574,6.911-2.024,9.63-4.341l64.42-54.878l61.961,54.671
			c2.777,2.45,6.081,4.012,9.445,4.669c-0.625,1.457-0.342,3.211,0.85,4.403c0.781,0.781,1.805,1.172,2.829,1.172
			s2.047-0.391,2.829-1.172l8.488-8.486c1.562-1.562,1.562-4.094,0.002-5.658c-1.247-1.247-3.112-1.496-4.6-0.761
			c-0.611-3.473-2.108-6.853-4.474-9.537l-54.571-61.846L185,50.584L186.684,48.954z M52.594,73.264l6.771-6.771l-5.658-5.658
			l-6.771,6.771l-10.83-10.831l6.286-6.285l-5.658-5.658l-6.284,6.284l-7.86-7.859L36.735,29.11l59.407,59.408l-7.073,7.074
			l-7.073,7.073L52.594,73.264z M33.486,181.061c-2.186,1.863-4.893,2.668-7.378,2.743c0.168-2.473,1.162-5.068,2.952-7.169
			l53.343-62.617l14.629,12.909L33.486,181.061z M174.42,176.868c1.846,2.09,2.679,4.68,2.8,7.079
			c-2.383-0.219-4.866-1.231-6.873-3.004l-82.51-72.804l13.779-13.779L174.42,176.868z M121.6,102.667l-14.144-14.146l28.33-28.33
			l5.616,5.616l5.658-5.658l-5.616-5.616l12.819-12.82l5.651,5.651l5.807-5.807l-5.651-5.651l6.794-6.794l14.144,14.146
			L121.6,102.667z"/>
	</g>
</g>
</svg>